<?xml version="1.0" encoding="utf-8"?>
<svg width="302.912px" height="44.800003px" viewBox="0 0 302.912 44.800003" version="1.1" xmlns:xlink="http://www.w3.org/1999/xlink" xmlns="http://www.w3.org/2000/svg">
  <path d="M2176 44.1599L2206.53 44.1599L2206.53 34.6879L2186.24 34.6879L2186.24 26.5599L2205.25 26.5599L2205.25 17.5999L2186.24 17.5999L2186.24 10.1119L2206.53 10.1119L2206.53 0.639877L2176 0.639877L2176 44.1599ZM2210.62 44.1599L2226.69 44.1599C2239.55 44.1599 2248.51 35.9679 2248.51 22.3999C2248.51 8.83188 2239.55 0.639877 2226.69 0.639877L2210.62 0.639877L2210.62 44.1599ZM2220.86 34.6879L2220.86 10.1119L2226.37 10.1119C2233.34 10.1119 2237.89 14.6559 2237.89 21.7599L2237.89 23.0399C2237.89 30.1439 2233.34 34.6879 2226.37 34.6879L2220.86 34.6879ZM2269.89 44.7999C2281.98 44.7999 2288.38 38.1439 2288.38 26.2399L2288.38 0.639877L2278.14 0.639877L2278.14 25.7279C2278.14 32.7039 2275.26 35.3279 2269.89 35.3279C2264.51 35.3279 2261.63 32.7039 2261.63 25.7279L2261.63 0.639877L2251.39 0.639877L2251.39 26.2399C2251.39 38.1439 2257.79 44.7999 2269.89 44.7999L2269.89 44.7999ZM2304.96 26.6879L2310.91 27.7759C2314.75 28.4799 2316.16 29.9519 2316.16 31.9359C2316.16 34.4959 2313.79 36.0319 2309.76 36.0319C2303.87 36.0319 2301.82 32.7039 2301.76 29.1199L2291.26 29.1199C2291.84 37.3119 2296.64 44.7999 2309.38 44.7999C2319.55 44.7999 2326.66 39.9999 2326.66 31.0399C2326.66 23.7439 2322.05 19.5199 2313.47 17.9839L2307.46 16.8959C2303.62 16.1919 2302.21 14.9119 2302.21 12.9279C2302.21 10.3679 2304.58 8.76788 2308.61 8.76788C2314.5 8.76788 2316.48 12.0959 2316.61 15.6799L2327.1 15.6799C2326.53 7.48788 2321.73 -0.00012207 2308.99 -0.00012207C2298.82 -0.00012207 2291.71 4.79988 2291.71 13.7599C2291.71 21.0559 2296.45 25.1519 2304.96 26.6879L2304.96 26.6879ZM2330.69 44.1599L2340.93 44.1599L2340.93 30.8479L2347.33 30.8479C2357.38 30.8479 2364.1 24.9599 2364.1 15.7439C2364.1 6.52788 2357.38 0.639877 2347.33 0.639877L2330.69 0.639877L2330.69 44.1599ZM2340.93 21.7599L2340.93 9.72788L2347.07 9.72788C2351.3 9.72788 2353.47 12.0319 2353.47 15.4239L2353.47 16.0639C2353.47 19.4559 2351.3 21.7599 2347.07 21.7599L2340.93 21.7599ZM2390.4 0.639877L2373.89 0.639877L2361.02 44.1599L2371.71 44.1599L2374.59 33.6639L2389.63 33.6639L2392.58 44.1599L2403.26 44.1599L2390.4 0.639877ZM2377.22 24.1919L2380.03 14.1439L2382.02 6.46388L2382.14 6.46388L2384.13 14.1439L2386.94 24.1919L2377.22 24.1919ZM2406.21 44.1599L2416.45 44.1599L2416.45 29.2479L2419.65 29.2479L2428.67 44.1599L2441.02 44.1599L2429.76 28.1599C2435.65 26.2399 2439.23 21.7599 2439.23 15.1039C2439.23 6.33588 2432.9 0.639877 2422.78 0.639877L2406.21 0.639877L2406.21 44.1599ZM2416.45 20.7359L2416.45 9.72788L2422.21 9.72788C2426.43 9.72788 2428.61 11.8399 2428.61 14.9119L2428.61 15.5519C2428.61 18.6239 2426.43 20.7359 2422.21 20.7359L2416.45 20.7359ZM2443.01 44.1599L2453.25 44.1599L2453.25 24.3199L2466.3 44.1599L2478.91 44.1599L2463.49 22.0799L2478.85 0.639877L2466.37 0.639877L2453.25 19.9039L2453.25 0.639877L2443.01 0.639877L2443.01 44.1599Z" id="EDUSPARK" fill="#0284C7" stroke="none" />
</svg>