<?xml version="1.0" encoding="utf-8"?>
<svg width="1920px" height="1080px" viewBox="0 0 1920 1080" version="1.1" xmlns:xlink="http://www.w3.org/1999/xlink" xmlns="http://www.w3.org/2000/svg">
  <defs>
    <path d="M1920 0L1920 0L1920 1080L0 1080L0 0L1920 0Z" id="path_1" />
    <path d="M0 0L405 0L405 96L0 96L0 0Z" id="path_2" />
    <path d="M0 0L96 0L96 48L0 48L0 0Z" id="path_3" />
    <clipPath id="clip_1">
      <use xlink:href="#path_1" clip-rule="evenodd" fill-rule="evenodd" />
    </clipPath>
    <clipPath id="clip_2">
      <use xlink:href="#path_2" clip-rule="evenodd" fill-rule="evenodd" transform="translate(0, -18.696)" />
    </clipPath>
    <clipPath id="clip_3">
      <use xlink:href="#path_3" clip-rule="evenodd" fill-rule="evenodd" transform="translate(0, -9.348)" />
    </clipPath>
  </defs>
  <g id="Main Page" clip-path="url(#clip_1)">
    <path d="M1920 0L1920 0L1920 1080L0 1080L0 0L1920 0Z" id="Main-Page" fill="#F5F5F5" stroke="none" />
    <g id="All-of-your-child's-learning-i" transform="translate(300 288.4239)">
      <g transform="translate(135.20001, 0)" id="All-of-your-child's-" fill="#0F172A">
        <path d="M31.872 89.472L43.776 55.936L44.032 55.936L55.552 89.472L31.872 89.472ZM33.792 33.408L-0.768 124.8L19.456 124.8L26.624 104.448L60.8 104.448L67.712 124.8L88.576 124.8L54.4 33.408L33.792 33.408ZM95.104 33.408L95.104 124.8L113.28 124.8L113.28 33.408L95.104 33.408ZM128.128 33.408L128.128 124.8L146.304 124.8L146.304 33.408L128.128 33.408ZM212.352 91.776Q212.352 87.808 213.12 83.968Q213.888 80.128 215.744 77.184Q217.6 74.24 220.672 72.384Q223.744 70.528 228.352 70.528Q232.96 70.528 236.096 72.384Q239.232 74.24 241.088 77.184Q242.944 80.128 243.712 83.968Q244.48 87.808 244.48 91.776Q244.48 95.744 243.712 99.52Q242.944 103.296 241.088 106.304Q239.232 109.312 236.096 111.104Q232.96 112.896 228.352 112.896Q223.744 112.896 220.672 111.104Q217.6 109.312 215.744 106.304Q213.888 103.296 213.12 99.52Q212.352 95.744 212.352 91.776ZM194.176 91.776Q194.176 99.712 196.608 106.112Q199.04 112.512 203.52 117.056Q208 121.6 214.272 124.032Q220.544 126.464 228.352 126.464Q236.16 126.464 242.496 124.032Q248.832 121.6 253.312 117.056Q257.792 112.512 260.224 106.112Q262.656 99.712 262.656 91.776Q262.656 83.84 260.224 77.376Q257.792 70.912 253.312 66.368Q248.832 61.824 242.496 59.328Q236.16 56.832 228.352 56.832Q220.544 56.832 214.272 59.328Q208 61.824 203.52 66.368Q199.04 70.912 196.608 77.376Q194.176 83.84 194.176 91.776ZM278.4 70.784L278.4 124.8L296.576 124.8L296.576 70.784L309.12 70.784L309.12 58.624L296.576 58.624L296.576 54.656Q296.576 50.56 298.176 48.832Q299.776 47.104 303.488 47.104Q306.944 47.104 310.144 47.488L310.144 33.92Q307.84 33.792 305.408 33.6Q302.976 33.408 300.544 33.408Q289.408 33.408 283.904 39.04Q278.4 44.672 278.4 53.504L278.4 58.624L267.52 58.624L267.52 70.784L278.4 70.784ZM385.28 132.992L412.928 58.624L394.112 58.624L379.648 103.936L379.392 103.936L364.416 58.624L345.088 58.624L368.256 120.704Q369.024 122.624 369.024 124.8Q369.024 127.744 367.296 130.176Q365.568 132.608 361.984 132.992Q359.296 133.12 356.608 132.864Q353.92 132.608 351.36 132.352L351.36 147.328Q354.176 147.584 356.928 147.776Q359.68 147.968 362.496 147.968Q371.84 147.968 377.088 144.512Q382.336 141.056 385.28 132.992ZM435.2 91.776Q435.2 87.808 435.968 83.968Q436.736 80.128 438.592 77.184Q440.448 74.24 443.52 72.384Q446.592 70.528 451.2 70.528Q455.808 70.528 458.944 72.384Q462.08 74.24 463.936 77.184Q465.792 80.128 466.56 83.968Q467.328 87.808 467.328 91.776Q467.328 95.744 466.56 99.52Q465.792 103.296 463.936 106.304Q462.08 109.312 458.944 111.104Q455.808 112.896 451.2 112.896Q446.592 112.896 443.52 111.104Q440.448 109.312 438.592 106.304Q436.736 103.296 435.968 99.52Q435.2 95.744 435.2 91.776ZM417.024 91.776Q417.024 99.712 419.456 106.112Q421.888 112.512 426.368 117.056Q430.848 121.6 437.12 124.032Q443.392 126.464 451.2 126.464Q459.008 126.464 465.344 124.032Q471.68 121.6 476.16 117.056Q480.64 112.512 483.072 106.112Q485.504 99.712 485.504 91.776Q485.504 83.84 483.072 77.376Q480.64 70.912 476.16 66.368Q471.68 61.824 465.344 59.328Q459.008 56.832 451.2 56.832Q443.392 56.832 437.12 59.328Q430.848 61.824 426.368 66.368Q421.888 70.912 419.456 77.376Q417.024 83.84 417.024 91.776ZM559.36 124.8L559.36 58.624L541.184 58.624L541.184 93.312Q541.184 103.424 537.856 107.84Q534.528 112.256 527.104 112.256Q520.576 112.256 518.016 108.224Q515.456 104.192 515.456 96L515.456 58.624L497.28 58.624L497.28 99.328Q497.28 105.472 498.368 110.528Q499.456 115.584 502.144 119.104Q504.832 122.624 509.504 124.544Q514.176 126.464 521.472 126.464Q527.232 126.464 532.736 123.904Q538.24 121.344 541.696 115.584L542.08 115.584L542.08 124.8L559.36 124.8ZM573.184 58.624L573.184 124.8L591.36 124.8L591.36 94.976Q591.36 90.496 592.256 86.656Q593.152 82.816 595.264 79.936Q597.376 77.056 600.832 75.392Q604.288 73.728 609.28 73.728Q610.944 73.728 612.736 73.92Q614.528 74.112 615.808 74.368L615.808 57.472Q613.632 56.832 611.84 56.832Q608.384 56.832 605.184 57.856Q601.984 58.88 599.168 60.736Q596.352 62.592 594.176 65.216Q592 67.84 590.72 70.912L590.464 70.912L590.464 58.624L573.184 58.624ZM703.616 81.92L721.408 81.92Q721.024 75.52 718.336 70.848Q715.648 66.176 711.36 63.04Q707.072 59.904 701.632 58.368Q696.192 56.832 690.304 56.832Q682.24 56.832 675.968 59.52Q669.696 62.208 665.344 67.008Q660.992 71.808 658.752 78.4Q656.512 84.992 656.512 92.672Q656.512 100.096 658.944 106.304Q661.376 112.512 665.728 116.992Q670.08 121.472 676.288 123.968Q682.496 126.464 689.92 126.464Q703.104 126.464 711.552 119.552Q720 112.64 721.792 99.456L704.256 99.456Q703.36 105.6 699.84 109.248Q696.32 112.896 689.792 112.896Q685.568 112.896 682.624 110.976Q679.68 109.056 677.952 106.048Q676.224 103.04 675.456 99.328Q674.688 95.616 674.688 92.032Q674.688 88.32 675.456 84.544Q676.224 80.768 678.08 77.632Q679.936 74.496 682.88 72.512Q685.824 70.528 690.176 70.528Q701.824 70.528 703.616 81.92ZM732.032 33.408L732.032 124.8L750.208 124.8L750.208 90.112Q750.208 80 753.536 75.584Q756.864 71.168 764.288 71.168Q770.816 71.168 773.376 75.2Q775.936 79.232 775.936 87.424L775.936 124.8L794.112 124.8L794.112 84.096Q794.112 77.952 793.024 72.896Q791.936 67.84 789.248 64.32Q786.56 60.8 781.888 58.816Q777.216 56.832 769.92 56.832Q764.8 56.832 759.424 59.456Q754.048 62.08 750.592 67.84L750.208 67.84L750.208 33.408L732.032 33.408ZM826.624 48.384L826.624 33.408L808.448 33.408L808.448 48.384L826.624 48.384ZM808.448 58.624L808.448 124.8L826.624 124.8L826.624 58.624L808.448 58.624ZM841.472 33.408L841.472 124.8L859.648 124.8L859.648 33.408L841.472 33.408ZM920.96 91.52Q920.96 95.616 920.192 99.456Q919.424 103.296 917.632 106.304Q915.84 109.312 912.832 111.104Q909.824 112.896 905.344 112.896Q901.12 112.896 898.112 111.04Q895.104 109.184 893.12 106.176Q891.136 103.168 890.24 99.328Q889.344 95.488 889.344 91.648Q889.344 87.552 890.176 83.776Q891.008 80 892.864 77.056Q894.72 74.112 897.792 72.32Q900.864 70.528 905.344 70.528Q909.824 70.528 912.768 72.32Q915.712 74.112 917.568 76.992Q919.424 79.872 920.192 83.648Q920.96 87.424 920.96 91.52ZM921.216 116.352L921.216 124.8L938.496 124.8L938.496 33.408L920.32 33.408L920.32 66.688L920.064 66.688Q916.992 61.824 911.68 59.328Q906.368 56.832 900.48 56.832Q893.184 56.832 887.68 59.712Q882.176 62.592 878.528 67.328Q874.88 72.064 873.024 78.272Q871.168 84.48 871.168 91.136Q871.168 98.048 873.024 104.448Q874.88 110.848 878.528 115.776Q882.176 120.704 887.808 123.584Q893.44 126.464 900.864 126.464Q907.392 126.464 912.576 124.096Q917.76 121.728 920.96 116.352L921.216 116.352ZM956.288 33.408L956.288 74.496L969.984 74.496L969.984 33.408L956.288 33.408ZM1001.86 103.296L984.576 103.296Q984.832 109.952 987.584 114.368Q990.336 118.784 994.624 121.472Q998.912 124.16 1004.42 125.312Q1009.92 126.464 1015.68 126.464Q1021.31 126.464 1026.75 125.376Q1032.19 124.288 1036.42 121.6Q1040.64 118.912 1043.26 114.496Q1045.89 110.08 1045.89 103.552Q1045.89 98.944 1044.1 95.808Q1042.3 92.672 1039.36 90.56Q1036.42 88.448 1032.64 87.168Q1028.86 85.888 1024.9 84.992Q1021.06 84.096 1017.34 83.328Q1013.63 82.56 1010.75 81.6Q1007.87 80.64 1006.08 79.104Q1004.29 77.568 1004.29 75.136Q1004.29 73.088 1005.31 71.872Q1006.34 70.656 1007.81 70.016Q1009.28 69.376 1011.07 69.184Q1012.86 68.992 1014.4 68.992Q1019.26 68.992 1022.85 70.848Q1026.43 72.704 1026.82 77.952L1044.1 77.952Q1043.58 71.808 1040.96 67.776Q1038.34 63.744 1034.37 61.312Q1030.4 58.88 1025.34 57.856Q1020.29 56.832 1014.91 56.832Q1009.54 56.832 1004.42 57.792Q999.296 58.752 995.2 61.12Q991.104 63.488 988.608 67.584Q986.112 71.68 986.112 78.08Q986.112 82.432 987.904 85.44Q989.696 88.448 992.64 90.432Q995.584 92.416 999.36 93.632Q1003.14 94.848 1007.1 95.744Q1016.83 97.792 1022.27 99.84Q1027.71 101.888 1027.71 105.984Q1027.71 108.416 1026.56 110.016Q1025.41 111.616 1023.68 112.576Q1021.95 113.536 1019.84 113.984Q1017.73 114.432 1015.81 114.432Q1013.12 114.432 1010.62 113.792Q1008.13 113.152 1006.21 111.808Q1004.29 110.464 1003.07 108.352Q1001.86 106.24 1001.86 103.296Z" />
      </g>
      <g transform="translate(24.992065, 156.28906)" id="learning-in--one--place" fill="#0F172A">
        <path d="M7.424 33.408L7.424 124.8L25.6 124.8L25.6 33.408L7.424 33.408ZM84.48 84.608L54.912 84.608Q55.04 82.688 55.744 80.256Q56.448 77.824 58.176 75.648Q59.904 73.472 62.784 72Q65.664 70.528 70.016 70.528Q76.672 70.528 79.936 74.112Q83.2 77.696 84.48 84.608ZM54.912 96.128L102.656 96.128Q103.168 88.448 101.376 81.408Q99.584 74.368 95.552 68.864Q91.52 63.36 85.248 60.096Q78.976 56.832 70.528 56.832Q62.976 56.832 56.768 59.52Q50.56 62.208 46.08 66.88Q41.6 71.552 39.168 77.952Q36.736 84.352 36.736 91.776Q36.736 99.456 39.104 105.856Q41.472 112.256 45.824 116.864Q50.176 121.472 56.448 123.968Q62.72 126.464 70.528 126.464Q81.792 126.464 89.728 121.344Q97.664 116.224 101.504 104.32L85.504 104.32Q84.608 107.392 80.64 110.144Q76.672 112.896 71.168 112.896Q63.488 112.896 59.392 108.928Q55.296 104.96 54.912 96.128ZM112.64 78.976Q113.024 72.576 115.84 68.352Q118.656 64.128 123.008 61.568Q127.36 59.008 132.8 57.92Q138.24 56.832 143.744 56.832Q148.736 56.832 153.856 57.536Q158.976 58.24 163.2 60.288Q167.424 62.336 170.112 65.984Q172.8 69.632 172.8 75.648L172.8 110.08Q172.8 114.56 173.312 118.656Q173.824 122.752 175.104 124.8L156.672 124.8Q156.16 123.264 155.84 121.664Q155.52 120.064 155.392 118.4Q151.04 122.88 145.152 124.672Q139.264 126.464 133.12 126.464Q128.384 126.464 124.288 125.312Q120.192 124.16 117.12 121.728Q114.048 119.296 112.32 115.584Q110.592 111.872 110.592 106.752Q110.592 101.12 112.576 97.472Q114.56 93.824 117.696 91.648Q120.832 89.472 124.864 88.384Q128.896 87.296 132.992 86.656Q137.088 86.016 141.056 85.632Q145.024 85.248 148.096 84.48Q151.168 83.712 152.96 82.24Q154.752 80.768 154.624 77.952Q154.624 75.008 153.664 73.28Q152.704 71.552 151.104 70.592Q149.504 69.632 147.392 69.312Q145.28 68.992 142.848 68.992Q137.472 68.992 134.4 71.296Q131.328 73.6 130.816 78.976L112.64 78.976ZM154.624 92.416Q153.472 93.44 151.744 94.016Q150.016 94.592 148.032 94.976Q146.048 95.36 143.872 95.616Q141.696 95.872 139.52 96.256Q137.472 96.64 135.488 97.28Q133.504 97.92 132.032 99.008Q130.56 100.096 129.664 101.76Q128.768 103.424 128.768 105.984Q128.768 108.416 129.664 110.08Q130.56 111.744 132.096 112.704Q133.632 113.664 135.68 114.048Q137.728 114.432 139.904 114.432Q145.28 114.432 148.224 112.64Q151.168 110.848 152.576 108.352Q153.984 105.856 154.304 103.296Q154.624 100.736 154.624 99.2L154.624 92.416ZM186.88 58.624L186.88 124.8L205.056 124.8L205.056 94.976Q205.056 90.496 205.952 86.656Q206.848 82.816 208.96 79.936Q211.072 77.056 214.528 75.392Q217.984 73.728 222.976 73.728Q224.64 73.728 226.432 73.92Q228.224 74.112 229.504 74.368L229.504 57.472Q227.328 56.832 225.536 56.832Q222.08 56.832 218.88 57.856Q215.68 58.88 212.864 60.736Q210.048 62.592 207.872 65.216Q205.696 67.84 204.416 70.912L204.16 70.912L204.16 58.624L186.88 58.624ZM237.824 58.624L237.824 124.8L256 124.8L256 90.112Q256 80 259.328 75.584Q262.656 71.168 270.08 71.168Q276.608 71.168 279.168 75.2Q281.728 79.232 281.728 87.424L281.728 124.8L299.904 124.8L299.904 84.096Q299.904 77.952 298.816 72.896Q297.728 67.84 295.04 64.32Q292.352 60.8 287.68 58.816Q283.008 56.832 275.712 56.832Q269.952 56.832 264.448 59.456Q258.944 62.08 255.488 67.84L255.104 67.84L255.104 58.624L237.824 58.624ZM333.568 48.384L333.568 33.408L315.392 33.408L315.392 48.384L333.568 48.384ZM315.392 58.624L315.392 124.8L333.568 124.8L333.568 58.624L315.392 58.624ZM347.904 58.624L347.904 124.8L366.08 124.8L366.08 90.112Q366.08 80 369.408 75.584Q372.736 71.168 380.16 71.168Q386.688 71.168 389.248 75.2Q391.808 79.232 391.808 87.424L391.808 124.8L409.984 124.8L409.984 84.096Q409.984 77.952 408.896 72.896Q407.808 67.84 405.12 64.32Q402.432 60.8 397.76 58.816Q393.088 56.832 385.792 56.832Q380.032 56.832 374.528 59.456Q369.024 62.08 365.568 67.84L365.184 67.84L365.184 58.624L347.904 58.624ZM454.656 109.184Q450.432 109.184 447.616 107.392Q444.8 105.6 443.072 102.784Q441.344 99.968 440.64 96.448Q439.936 92.928 439.936 89.344Q439.936 85.632 440.768 82.24Q441.6 78.848 443.456 76.224Q445.312 73.6 448.064 72.064Q450.816 70.528 454.656 70.528Q459.136 70.528 462.08 72.192Q465.024 73.856 466.816 76.672Q468.608 79.488 469.376 83.136Q470.144 86.784 470.144 90.88Q470.144 94.464 469.184 97.728Q468.224 100.992 466.304 103.552Q464.384 106.112 461.44 107.648Q458.496 109.184 454.656 109.184ZM487.424 120.576L487.424 58.624L470.144 58.624L470.144 67.456L469.888 67.456Q466.56 61.696 461.632 59.264Q456.704 56.832 450.176 56.832Q443.264 56.832 437.952 59.52Q432.64 62.208 429.056 66.752Q425.472 71.296 423.616 77.248Q421.76 83.2 421.76 89.6Q421.76 96.384 423.36 102.464Q424.96 108.544 428.416 113.088Q431.872 117.632 437.248 120.256Q442.624 122.88 450.048 122.88Q456.064 122.88 461.504 120.384Q466.944 117.888 469.888 112.64L470.144 112.64L470.144 121.344Q470.272 128.384 466.752 132.992Q463.232 137.6 455.552 137.6Q450.688 137.6 446.976 135.616Q443.264 133.632 441.984 128.512L423.936 128.512Q424.32 134.144 427.072 138.176Q429.824 142.208 433.984 144.768Q438.144 147.328 443.2 148.544Q448.256 149.76 453.12 149.76Q464.512 149.76 471.296 146.688Q478.08 143.616 481.664 139.2Q485.248 134.784 486.336 129.664Q487.424 124.544 487.424 120.576ZM556.288 48.384L556.288 33.408L538.112 33.408L538.112 48.384L556.288 48.384ZM538.112 58.624L538.112 124.8L556.288 124.8L556.288 58.624L538.112 58.624ZM570.624 58.624L570.624 124.8L588.8 124.8L588.8 90.112Q588.8 80 592.128 75.584Q595.456 71.168 602.88 71.168Q609.408 71.168 611.968 75.2Q614.528 79.232 614.528 87.424L614.528 124.8L632.704 124.8L632.704 84.096Q632.704 77.952 631.616 72.896Q630.528 67.84 627.84 64.32Q625.152 60.8 620.48 58.816Q615.808 56.832 608.512 56.832Q602.752 56.832 597.248 59.456Q591.744 62.08 588.288 67.84L587.904 67.84L587.904 58.624L570.624 58.624Z" />
      </g>
      <g transform="translate(700.192, 156.28906)" id="learning-in--one--place" fill="#EAB308">
        <path d="M23.04 91.776Q23.04 87.808 23.808 83.968Q24.576 80.128 26.432 77.184Q28.288 74.24 31.36 72.384Q34.432 70.528 39.04 70.528Q43.648 70.528 46.784 72.384Q49.92 74.24 51.776 77.184Q53.632 80.128 54.4 83.968Q55.168 87.808 55.168 91.776Q55.168 95.744 54.4 99.52Q53.632 103.296 51.776 106.304Q49.92 109.312 46.784 111.104Q43.648 112.896 39.04 112.896Q34.432 112.896 31.36 111.104Q28.288 109.312 26.432 106.304Q24.576 103.296 23.808 99.52Q23.04 95.744 23.04 91.776ZM4.864 91.776Q4.864 99.712 7.296 106.112Q9.728 112.512 14.208 117.056Q18.688 121.6 24.96 124.032Q31.232 126.464 39.04 126.464Q46.848 126.464 53.184 124.032Q59.52 121.6 64 117.056Q68.48 112.512 70.912 106.112Q73.344 99.712 73.344 91.776Q73.344 83.84 70.912 77.376Q68.48 70.912 64 66.368Q59.52 61.824 53.184 59.328Q46.848 56.832 39.04 56.832Q31.232 56.832 24.96 59.328Q18.688 61.824 14.208 66.368Q9.728 70.912 7.296 77.376Q4.864 83.84 4.864 91.776ZM85.12 58.624L85.12 124.8L103.296 124.8L103.296 90.112Q103.296 80 106.624 75.584Q109.952 71.168 117.376 71.168Q123.904 71.168 126.464 75.2Q129.024 79.232 129.024 87.424L129.024 124.8L147.2 124.8L147.2 84.096Q147.2 77.952 146.112 72.896Q145.024 67.84 142.336 64.32Q139.648 60.8 134.976 58.816Q130.304 56.832 123.008 56.832Q117.248 56.832 111.744 59.456Q106.24 62.08 102.784 67.84L102.4 67.84L102.4 58.624L85.12 58.624ZM205.568 84.608L176 84.608Q176.128 82.688 176.832 80.256Q177.536 77.824 179.264 75.648Q180.992 73.472 183.872 72Q186.752 70.528 191.104 70.528Q197.76 70.528 201.024 74.112Q204.288 77.696 205.568 84.608ZM176 96.128L223.744 96.128Q224.256 88.448 222.464 81.408Q220.672 74.368 216.64 68.864Q212.608 63.36 206.336 60.096Q200.064 56.832 191.616 56.832Q184.064 56.832 177.856 59.52Q171.648 62.208 167.168 66.88Q162.688 71.552 160.256 77.952Q157.824 84.352 157.824 91.776Q157.824 99.456 160.192 105.856Q162.56 112.256 166.912 116.864Q171.264 121.472 177.536 123.968Q183.808 126.464 191.616 126.464Q202.88 126.464 210.816 121.344Q218.752 116.224 222.592 104.32L206.592 104.32Q205.696 107.392 201.728 110.144Q197.76 112.896 192.256 112.896Q184.576 112.896 180.48 108.928Q176.384 104.96 176 96.128Z" />
      </g>
      <g transform="translate(927.776, 156.28906)" id="learning-in--one--place" fill="#0F172A">
        <path d="M75.904 112.896Q71.552 112.896 68.48 111.104Q65.408 109.312 63.552 106.432Q61.696 103.552 60.864 99.712Q60.032 95.872 60.032 91.904Q60.032 87.808 60.8 83.968Q61.568 80.128 63.424 77.184Q65.28 74.24 68.288 72.384Q71.296 70.528 75.776 70.528Q80.128 70.528 83.136 72.384Q86.144 74.24 88.064 77.248Q89.984 80.256 90.816 84.096Q91.648 87.936 91.648 91.904Q91.648 95.872 90.88 99.712Q90.112 103.552 88.256 106.432Q86.4 109.312 83.392 111.104Q80.384 112.896 75.904 112.896ZM42.496 58.624L42.496 147.968L60.672 147.968L60.672 116.608L60.928 116.608Q64.256 121.472 69.44 123.968Q74.624 126.464 80.768 126.464Q88.064 126.464 93.504 123.648Q98.944 120.832 102.592 116.096Q106.24 111.36 108.032 105.216Q109.824 99.072 109.824 92.416Q109.824 85.376 108.032 78.912Q106.24 72.448 102.528 67.584Q98.816 62.72 93.184 59.776Q87.552 56.832 79.744 56.832Q73.6 56.832 68.48 59.264Q63.36 61.696 60.032 67.072L59.776 67.072L59.776 58.624L42.496 58.624ZM121.216 33.408L121.216 124.8L139.392 124.8L139.392 33.408L121.216 33.408ZM152.96 78.976Q153.344 72.576 156.16 68.352Q158.976 64.128 163.328 61.568Q167.68 59.008 173.12 57.92Q178.56 56.832 184.064 56.832Q189.056 56.832 194.176 57.536Q199.296 58.24 203.52 60.288Q207.744 62.336 210.432 65.984Q213.12 69.632 213.12 75.648L213.12 110.08Q213.12 114.56 213.632 118.656Q214.144 122.752 215.424 124.8L196.992 124.8Q196.48 123.264 196.16 121.664Q195.84 120.064 195.712 118.4Q191.36 122.88 185.472 124.672Q179.584 126.464 173.44 126.464Q168.704 126.464 164.608 125.312Q160.512 124.16 157.44 121.728Q154.368 119.296 152.64 115.584Q150.912 111.872 150.912 106.752Q150.912 101.12 152.896 97.472Q154.88 93.824 158.016 91.648Q161.152 89.472 165.184 88.384Q169.216 87.296 173.312 86.656Q177.408 86.016 181.376 85.632Q185.344 85.248 188.416 84.48Q191.488 83.712 193.28 82.24Q195.072 80.768 194.944 77.952Q194.944 75.008 193.984 73.28Q193.024 71.552 191.424 70.592Q189.824 69.632 187.712 69.312Q185.6 68.992 183.168 68.992Q177.792 68.992 174.72 71.296Q171.648 73.6 171.136 78.976L152.96 78.976ZM194.944 92.416Q193.792 93.44 192.064 94.016Q190.336 94.592 188.352 94.976Q186.368 95.36 184.192 95.616Q182.016 95.872 179.84 96.256Q177.792 96.64 175.808 97.28Q173.824 97.92 172.352 99.008Q170.88 100.096 169.984 101.76Q169.088 103.424 169.088 105.984Q169.088 108.416 169.984 110.08Q170.88 111.744 172.416 112.704Q173.952 113.664 176 114.048Q178.048 114.432 180.224 114.432Q185.6 114.432 188.544 112.64Q191.488 110.848 192.896 108.352Q194.304 105.856 194.624 103.296Q194.944 100.736 194.944 99.2L194.944 92.416ZM272.256 81.92L290.048 81.92Q289.664 75.52 286.976 70.848Q284.288 66.176 280 63.04Q275.712 59.904 270.272 58.368Q264.832 56.832 258.944 56.832Q250.88 56.832 244.608 59.52Q238.336 62.208 233.984 67.008Q229.632 71.808 227.392 78.4Q225.152 84.992 225.152 92.672Q225.152 100.096 227.584 106.304Q230.016 112.512 234.368 116.992Q238.72 121.472 244.928 123.968Q251.136 126.464 258.56 126.464Q271.744 126.464 280.192 119.552Q288.64 112.64 290.432 99.456L272.896 99.456Q272 105.6 268.48 109.248Q264.96 112.896 258.432 112.896Q254.208 112.896 251.264 110.976Q248.32 109.056 246.592 106.048Q244.864 103.04 244.096 99.328Q243.328 95.616 243.328 92.032Q243.328 88.32 244.096 84.544Q244.864 80.768 246.72 77.632Q248.576 74.496 251.52 72.512Q254.464 70.528 258.816 70.528Q270.464 70.528 272.256 81.92ZM345.216 84.608L315.648 84.608Q315.776 82.688 316.48 80.256Q317.184 77.824 318.912 75.648Q320.64 73.472 323.52 72Q326.4 70.528 330.752 70.528Q337.408 70.528 340.672 74.112Q343.936 77.696 345.216 84.608ZM315.648 96.128L363.392 96.128Q363.904 88.448 362.112 81.408Q360.32 74.368 356.288 68.864Q352.256 63.36 345.984 60.096Q339.712 56.832 331.264 56.832Q323.712 56.832 317.504 59.52Q311.296 62.208 306.816 66.88Q302.336 71.552 299.904 77.952Q297.472 84.352 297.472 91.776Q297.472 99.456 299.84 105.856Q302.208 112.256 306.56 116.864Q310.912 121.472 317.184 123.968Q323.456 126.464 331.264 126.464Q342.528 126.464 350.464 121.344Q358.4 116.224 362.24 104.32L346.24 104.32Q345.344 107.392 341.376 110.144Q337.408 112.896 331.904 112.896Q324.224 112.896 320.128 108.928Q316.032 104.96 315.648 96.128Z" />
      </g>
    </g>
    <g id="Group-2" transform="translate(404 664.9999)">
      <path d="M524 0C532.838 0 540 7.16224 540 16L540 112C540 120.838 532.838 128 524 128L16 128C7.16224 128 0 120.838 0 112L0 16C0 7.16224 7.16224 0 16 0L524 0Z" id="Rectangle" fill="#0284C7" stroke="none" />
      <g id="Sign-up" clip-path="url(#clip_2)" transform="translate(67.5 34.696)">
        <g transform="translate(116.268, 0)" id="Sign-up" fill="#E2E8F0">
          <path d="M8.448 35.424L1.152 35.424Q1.104 38.592 2.304 40.896Q3.504 43.2 5.544 44.688Q7.584 46.176 10.248 46.872Q12.912 47.568 15.744 47.568Q19.248 47.568 21.912 46.752Q24.576 45.936 26.376 44.472Q28.176 43.008 29.088 40.992Q30 38.976 30 36.624Q30 33.744 28.776 31.896Q27.552 30.048 25.872 28.944Q24.192 27.84 22.488 27.336Q20.784 26.832 19.824 26.64Q16.608 25.824 14.616 25.296Q12.624 24.768 11.496 24.24Q10.368 23.712 9.984 23.088Q9.6 22.464 9.6 21.456Q9.6 20.352 10.08 19.632Q10.56 18.912 11.304 18.432Q12.048 17.952 12.96 17.76Q13.872 17.568 14.784 17.568Q16.176 17.568 17.352 17.808Q18.528 18.048 19.44 18.624Q20.352 19.2 20.904 20.208Q21.456 21.216 21.552 22.752L28.848 22.752Q28.848 19.776 27.72 17.688Q26.592 15.6 24.672 14.256Q22.752 12.912 20.28 12.312Q17.808 11.712 15.12 11.712Q12.816 11.712 10.512 12.336Q8.208 12.96 6.384 14.256Q4.56 15.552 3.432 17.496Q2.304 19.44 2.304 22.08Q2.304 24.432 3.192 26.088Q4.08 27.744 5.52 28.848Q6.96 29.952 8.784 30.648Q10.608 31.344 12.528 31.824Q14.4 32.352 16.224 32.784Q18.048 33.216 19.488 33.792Q20.928 34.368 21.816 35.232Q22.704 36.096 22.704 37.488Q22.704 38.784 22.032 39.624Q21.36 40.464 20.352 40.944Q19.344 41.424 18.192 41.592Q17.04 41.76 16.032 41.76Q14.544 41.76 13.152 41.4Q11.76 41.04 10.728 40.296Q9.696 39.552 9.072 38.352Q8.448 37.152 8.448 35.424ZM40.752 18.144L40.752 12.528L33.936 12.528L33.936 18.144L40.752 18.144ZM33.936 21.984L33.936 46.8L40.752 46.8L40.752 21.984L33.936 21.984ZM57.696 40.944Q56.112 40.944 55.056 40.272Q54 39.6 53.352 38.544Q52.704 37.488 52.44 36.168Q52.176 34.848 52.176 33.504Q52.176 32.112 52.488 30.84Q52.8 29.568 53.496 28.584Q54.192 27.6 55.224 27.024Q56.256 26.448 57.696 26.448Q59.376 26.448 60.48 27.072Q61.584 27.696 62.256 28.752Q62.928 29.808 63.216 31.176Q63.504 32.544 63.504 34.08Q63.504 35.424 63.144 36.648Q62.784 37.872 62.064 38.832Q61.344 39.792 60.24 40.368Q59.136 40.944 57.696 40.944ZM69.984 45.216L69.984 21.984L63.504 21.984L63.504 25.296L63.408 25.296Q62.16 23.136 60.312 22.224Q58.464 21.312 56.016 21.312Q53.424 21.312 51.432 22.32Q49.44 23.328 48.096 25.032Q46.752 26.736 46.056 28.968Q45.36 31.2 45.36 33.6Q45.36 36.144 45.96 38.424Q46.56 40.704 47.856 42.408Q49.152 44.112 51.168 45.096Q53.184 46.08 55.968 46.08Q58.224 46.08 60.264 45.144Q62.304 44.208 63.408 42.24L63.504 42.24L63.504 45.504Q63.552 48.144 62.232 49.872Q60.912 51.6 58.032 51.6Q56.208 51.6 54.816 50.856Q53.424 50.112 52.944 48.192L46.176 48.192Q46.32 50.304 47.352 51.816Q48.384 53.328 49.944 54.288Q51.504 55.248 53.4 55.704Q55.296 56.16 57.12 56.16Q61.392 56.16 63.936 55.008Q66.48 53.856 67.824 52.2Q69.168 50.544 69.576 48.624Q69.984 46.704 69.984 45.216ZM75.456 21.984L75.456 46.8L82.272 46.8L82.272 33.792Q82.272 30 83.52 28.344Q84.768 26.688 87.552 26.688Q90 26.688 90.96 28.2Q91.92 29.712 91.92 32.784L91.92 46.8L98.736 46.8L98.736 31.536Q98.736 29.232 98.328 27.336Q97.92 25.44 96.912 24.12Q95.904 22.8 94.152 22.056Q92.4 21.312 89.664 21.312Q87.504 21.312 85.44 22.296Q83.376 23.28 82.08 25.44L81.936 25.44L81.936 21.984L75.456 21.984ZM140.544 46.8L140.544 21.984L133.728 21.984L133.728 34.992Q133.728 38.784 132.48 40.44Q131.232 42.096 128.448 42.096Q126 42.096 125.04 40.584Q124.08 39.072 124.08 36L124.08 21.984L117.264 21.984L117.264 37.248Q117.264 39.552 117.672 41.448Q118.08 43.344 119.088 44.664Q120.096 45.984 121.848 46.704Q123.6 47.424 126.336 47.424Q128.496 47.424 130.56 46.464Q132.624 45.504 133.92 43.344L134.064 43.344L134.064 46.8L140.544 46.8ZM158.256 42.336Q156.624 42.336 155.472 41.664Q154.32 40.992 153.624 39.912Q152.928 38.832 152.616 37.392Q152.304 35.952 152.304 34.464Q152.304 32.928 152.592 31.488Q152.88 30.048 153.576 28.944Q154.272 27.84 155.4 27.144Q156.528 26.448 158.208 26.448Q159.84 26.448 160.968 27.144Q162.096 27.84 162.816 28.968Q163.536 30.096 163.848 31.536Q164.16 32.976 164.16 34.464Q164.16 35.952 163.872 37.392Q163.584 38.832 162.888 39.912Q162.192 40.992 161.064 41.664Q159.936 42.336 158.256 42.336ZM145.728 21.984L145.728 55.488L152.544 55.488L152.544 43.728L152.64 43.728Q153.888 45.552 155.832 46.488Q157.776 47.424 160.08 47.424Q162.816 47.424 164.856 46.368Q166.896 45.312 168.264 43.536Q169.632 41.76 170.304 39.456Q170.976 37.152 170.976 34.656Q170.976 32.016 170.304 29.592Q169.632 27.168 168.24 25.344Q166.848 23.52 164.736 22.416Q162.624 21.312 159.696 21.312Q157.392 21.312 155.472 22.224Q153.552 23.136 152.304 25.152L152.208 25.152L152.208 21.984L145.728 21.984Z" />
        </g>
      </g>
    </g>
    <g id="Group-2-Copy" transform="translate(976.0001 665)">
      <path d="M524 0C532.838 0 540 7.16224 540 16L540 112C540 120.838 532.838 128 524 128L16 128C7.16224 128 0 120.838 0 112L0 16C0 7.16224 7.16224 0 16 0L524 0Z" id="Rectangle" fill="#A5F3FC" stroke="none" />
      <g id="Learn-more" clip-path="url(#clip_2)" transform="translate(67.5 34.696)">
        <g transform="translate(70.95599, 0)" id="Learn-more" fill="#0F172A">
          <path d="M3.312 12.528L3.312 46.8L27.552 46.8L27.552 40.464L10.848 40.464L10.848 12.528L3.312 12.528ZM47.76 31.728L36.672 31.728Q36.72 31.008 36.984 30.096Q37.248 29.184 37.896 28.368Q38.544 27.552 39.624 27Q40.704 26.448 42.336 26.448Q44.832 26.448 46.056 27.792Q47.28 29.136 47.76 31.728ZM36.672 36.048L54.576 36.048Q54.768 33.168 54.096 30.528Q53.424 27.888 51.912 25.824Q50.4 23.76 48.048 22.536Q45.696 21.312 42.528 21.312Q39.696 21.312 37.368 22.32Q35.04 23.328 33.36 25.08Q31.68 26.832 30.768 29.232Q29.856 31.632 29.856 34.416Q29.856 37.296 30.744 39.696Q31.632 42.096 33.264 43.824Q34.896 45.552 37.248 46.488Q39.6 47.424 42.528 47.424Q46.752 47.424 49.728 45.504Q52.704 43.584 54.144 39.12L48.144 39.12Q47.808 40.272 46.32 41.304Q44.832 42.336 42.768 42.336Q39.888 42.336 38.352 40.848Q36.816 39.36 36.672 36.048ZM58.32 29.616Q58.464 27.216 59.52 25.632Q60.576 24.048 62.208 23.088Q63.84 22.128 65.88 21.72Q67.92 21.312 69.984 21.312Q71.856 21.312 73.776 21.576Q75.696 21.84 77.28 22.608Q78.864 23.376 79.872 24.744Q80.88 26.112 80.88 28.368L80.88 41.28Q80.88 42.96 81.072 44.496Q81.264 46.032 81.744 46.8L74.832 46.8Q74.64 46.224 74.52 45.624Q74.4 45.024 74.352 44.4Q72.72 46.08 70.512 46.752Q68.304 47.424 66 47.424Q64.224 47.424 62.688 46.992Q61.152 46.56 60 45.648Q58.848 44.736 58.2 43.344Q57.552 41.952 57.552 40.032Q57.552 37.92 58.296 36.552Q59.04 35.184 60.216 34.368Q61.392 33.552 62.904 33.144Q64.416 32.736 65.952 32.496Q67.488 32.256 68.976 32.112Q70.464 31.968 71.616 31.68Q72.768 31.392 73.44 30.84Q74.112 30.288 74.064 29.232Q74.064 28.128 73.704 27.48Q73.344 26.832 72.744 26.472Q72.144 26.112 71.352 25.992Q70.56 25.872 69.648 25.872Q67.632 25.872 66.48 26.736Q65.328 27.6 65.136 29.616L58.32 29.616ZM74.064 34.656Q73.632 35.04 72.984 35.256Q72.336 35.472 71.592 35.616Q70.848 35.76 70.032 35.856Q69.216 35.952 68.4 36.096Q67.632 36.24 66.888 36.48Q66.144 36.72 65.592 37.128Q65.04 37.536 64.704 38.16Q64.368 38.784 64.368 39.744Q64.368 40.656 64.704 41.28Q65.04 41.904 65.616 42.264Q66.192 42.624 66.96 42.768Q67.728 42.912 68.544 42.912Q70.56 42.912 71.664 42.24Q72.768 41.568 73.296 40.632Q73.824 39.696 73.944 38.736Q74.064 37.776 74.064 37.2L74.064 34.656ZM86.16 21.984L86.16 46.8L92.976 46.8L92.976 35.616Q92.976 33.936 93.312 32.496Q93.648 31.056 94.44 29.976Q95.232 28.896 96.528 28.272Q97.824 27.648 99.696 27.648Q100.32 27.648 100.992 27.72Q101.664 27.792 102.144 27.888L102.144 21.552Q101.328 21.312 100.656 21.312Q99.36 21.312 98.16 21.696Q96.96 22.08 95.904 22.776Q94.848 23.472 94.032 24.456Q93.216 25.44 92.736 26.592L92.64 26.592L92.64 21.984L86.16 21.984ZM105.264 21.984L105.264 46.8L112.08 46.8L112.08 33.792Q112.08 30 113.328 28.344Q114.576 26.688 117.36 26.688Q119.808 26.688 120.768 28.2Q121.728 29.712 121.728 32.784L121.728 46.8L128.544 46.8L128.544 31.536Q128.544 29.232 128.136 27.336Q127.728 25.44 126.72 24.12Q125.712 22.8 123.96 22.056Q122.208 21.312 119.472 21.312Q117.312 21.312 115.248 22.296Q113.184 23.28 111.888 25.44L111.744 25.44L111.744 21.984L105.264 21.984ZM147.696 21.984L147.696 46.8L154.512 46.8L154.512 32.4Q154.512 30.576 155.04 29.448Q155.568 28.32 156.312 27.72Q157.056 27.12 157.848 26.904Q158.64 26.688 159.12 26.688Q160.752 26.688 161.592 27.24Q162.432 27.792 162.792 28.704Q163.152 29.616 163.2 30.696Q163.248 31.776 163.248 32.88L163.248 46.8L170.064 46.8L170.064 32.976Q170.064 31.824 170.232 30.696Q170.4 29.568 170.904 28.68Q171.408 27.792 172.296 27.24Q173.184 26.688 174.624 26.688Q176.064 26.688 176.904 27.168Q177.744 27.648 178.176 28.464Q178.608 29.28 178.704 30.384Q178.8 31.488 178.8 32.736L178.8 46.8L185.616 46.8L185.616 30.192Q185.616 27.792 184.944 26.088Q184.272 24.384 183.072 23.328Q181.872 22.272 180.192 21.792Q178.512 21.312 176.544 21.312Q173.952 21.312 172.056 22.56Q170.16 23.808 169.056 25.44Q168.048 23.136 166.104 22.224Q164.16 21.312 161.808 21.312Q159.36 21.312 157.464 22.368Q155.568 23.424 154.224 25.344L154.128 25.344L154.128 21.984L147.696 21.984ZM197.04 34.416Q197.04 32.928 197.328 31.488Q197.616 30.048 198.312 28.944Q199.008 27.84 200.16 27.144Q201.312 26.448 203.04 26.448Q204.768 26.448 205.944 27.144Q207.12 27.84 207.816 28.944Q208.512 30.048 208.8 31.488Q209.088 32.928 209.088 34.416Q209.088 35.904 208.8 37.32Q208.512 38.736 207.816 39.864Q207.12 40.992 205.944 41.664Q204.768 42.336 203.04 42.336Q201.312 42.336 200.16 41.664Q199.008 40.992 198.312 39.864Q197.616 38.736 197.328 37.32Q197.04 35.904 197.04 34.416ZM190.224 34.416Q190.224 37.392 191.136 39.792Q192.048 42.192 193.728 43.896Q195.408 45.6 197.76 46.512Q200.112 47.424 203.04 47.424Q205.968 47.424 208.344 46.512Q210.72 45.6 212.4 43.896Q214.08 42.192 214.992 39.792Q215.904 37.392 215.904 34.416Q215.904 31.44 214.992 29.016Q214.08 26.592 212.4 24.888Q210.72 23.184 208.344 22.248Q205.968 21.312 203.04 21.312Q200.112 21.312 197.76 22.248Q195.408 23.184 193.728 24.888Q192.048 26.592 191.136 29.016Q190.224 31.44 190.224 34.416ZM220.32 21.984L220.32 46.8L227.136 46.8L227.136 35.616Q227.136 33.936 227.472 32.496Q227.808 31.056 228.6 29.976Q229.392 28.896 230.688 28.272Q231.984 27.648 233.856 27.648Q234.48 27.648 235.152 27.72Q235.824 27.792 236.304 27.888L236.304 21.552Q235.488 21.312 234.816 21.312Q233.52 21.312 232.32 21.696Q231.12 22.08 230.064 22.776Q229.008 23.472 228.192 24.456Q227.376 25.44 226.896 26.592L226.8 26.592L226.8 21.984L220.32 21.984ZM255.264 31.728L244.176 31.728Q244.224 31.008 244.488 30.096Q244.752 29.184 245.4 28.368Q246.048 27.552 247.128 27Q248.208 26.448 249.84 26.448Q252.336 26.448 253.56 27.792Q254.784 29.136 255.264 31.728ZM244.176 36.048L262.08 36.048Q262.272 33.168 261.6 30.528Q260.928 27.888 259.416 25.824Q257.904 23.76 255.552 22.536Q253.2 21.312 250.032 21.312Q247.2 21.312 244.872 22.32Q242.544 23.328 240.864 25.08Q239.184 26.832 238.272 29.232Q237.36 31.632 237.36 34.416Q237.36 37.296 238.248 39.696Q239.136 42.096 240.768 43.824Q242.4 45.552 244.752 46.488Q247.104 47.424 250.032 47.424Q254.256 47.424 257.232 45.504Q260.208 43.584 261.648 39.12L255.648 39.12Q255.312 40.272 253.824 41.304Q252.336 42.336 250.272 42.336Q247.392 42.336 245.856 40.848Q244.32 39.36 244.176 36.048Z" />
        </g>
      </g>
    </g>
    <g id="Group-3" transform="translate(1600 31.9999)">
      <path d="M112 0C120.838 0 128 7.16224 128 16L128 48C128 56.8378 120.838 64 112 64L16 64C7.16224 64 0 56.8378 0 48L0 16C0 7.16224 7.16224 0 16 0L112 0Z" id="Rectangle-3-Copy" fill="#172554" stroke="none" />
      <g id="Log-in" clip-path="url(#clip_3)" transform="translate(16 17.348)">
        <g transform="translate(12.671997, 0)" id="Log-in" fill="#E0F2FE">
          <path d="M1.656 6.264L1.656 23.4L13.776 23.4L13.776 20.232L5.424 20.232L5.424 6.264L1.656 6.264ZM18.552 17.208Q18.552 16.464 18.696 15.744Q18.84 15.024 19.188 14.472Q19.536 13.92 20.112 13.572Q20.688 13.224 21.552 13.224Q22.416 13.224 23.004 13.572Q23.592 13.92 23.94 14.472Q24.288 15.024 24.432 15.744Q24.576 16.464 24.576 17.208Q24.576 17.952 24.432 18.66Q24.288 19.368 23.94 19.932Q23.592 20.496 23.004 20.832Q22.416 21.168 21.552 21.168Q20.688 21.168 20.112 20.832Q19.536 20.496 19.188 19.932Q18.84 19.368 18.696 18.66Q18.552 17.952 18.552 17.208ZM15.144 17.208Q15.144 18.696 15.6 19.896Q16.056 21.096 16.896 21.948Q17.736 22.8 18.912 23.256Q20.088 23.712 21.552 23.712Q23.016 23.712 24.204 23.256Q25.392 22.8 26.232 21.948Q27.072 21.096 27.528 19.896Q27.984 18.696 27.984 17.208Q27.984 15.72 27.528 14.508Q27.072 13.296 26.232 12.444Q25.392 11.592 24.204 11.124Q23.016 10.656 21.552 10.656Q20.088 10.656 18.912 11.124Q17.736 11.592 16.896 12.444Q16.056 13.296 15.6 14.508Q15.144 15.72 15.144 17.208ZM35.976 20.472Q35.184 20.472 34.656 20.136Q34.128 19.8 33.804 19.272Q33.48 18.744 33.348 18.084Q33.216 17.424 33.216 16.752Q33.216 16.056 33.372 15.42Q33.528 14.784 33.876 14.292Q34.224 13.8 34.74 13.512Q35.256 13.224 35.976 13.224Q36.816 13.224 37.368 13.536Q37.92 13.848 38.256 14.376Q38.592 14.904 38.736 15.588Q38.88 16.272 38.88 17.04Q38.88 17.712 38.7 18.324Q38.52 18.936 38.16 19.416Q37.8 19.896 37.248 20.184Q36.696 20.472 35.976 20.472ZM42.12 22.608L42.12 10.992L38.88 10.992L38.88 12.648L38.832 12.648Q38.208 11.568 37.284 11.112Q36.36 10.656 35.136 10.656Q33.84 10.656 32.844 11.16Q31.848 11.664 31.176 12.516Q30.504 13.368 30.156 14.484Q29.808 15.6 29.808 16.8Q29.808 18.072 30.108 19.212Q30.408 20.352 31.056 21.204Q31.704 22.056 32.712 22.548Q33.72 23.04 35.112 23.04Q36.24 23.04 37.26 22.572Q38.28 22.104 38.832 21.12L38.88 21.12L38.88 22.752Q38.904 24.072 38.244 24.936Q37.584 25.8 36.144 25.8Q35.232 25.8 34.536 25.428Q33.84 25.056 33.6 24.096L30.216 24.096Q30.288 25.152 30.804 25.908Q31.32 26.664 32.1 27.144Q32.88 27.624 33.828 27.852Q34.776 28.08 35.688 28.08Q37.824 28.08 39.096 27.504Q40.368 26.928 41.04 26.1Q41.712 25.272 41.916 24.312Q42.12 23.352 42.12 22.608ZM55.032 9.072L55.032 6.264L51.624 6.264L51.624 9.072L55.032 9.072ZM51.624 10.992L51.624 23.4L55.032 23.4L55.032 10.992L51.624 10.992ZM57.72 10.992L57.72 23.4L61.128 23.4L61.128 16.896Q61.128 15 61.752 14.172Q62.376 13.344 63.768 13.344Q64.992 13.344 65.472 14.1Q65.952 14.856 65.952 16.392L65.952 23.4L69.36 23.4L69.36 15.768Q69.36 14.616 69.156 13.668Q68.952 12.72 68.448 12.06Q67.944 11.4 67.068 11.028Q66.192 10.656 64.824 10.656Q63.744 10.656 62.712 11.148Q61.68 11.64 61.032 12.72L60.96 12.72L60.96 10.992L57.72 10.992Z" />
        </g>
      </g>
    </g>
    <g id="Group-3-Copy" transform="translate(1760 31.9999)">
      <path d="M112 0C120.838 0 128 7.16224 128 16L128 48C128 56.8378 120.838 64 112 64L16 64C7.16224 64 0 56.8378 0 48L0 16C0 7.16224 7.16224 0 16 0L112 0Z" id="Rectangle-3-Copy" fill="#0284C7" stroke="none" />
      <g id="Sign-up" clip-path="url(#clip_3)" transform="translate(16 17.348)">
        <g transform="translate(4.883999, 0)" id="Sign-up" fill="#E0F2FE">
          <path d="M4.224 17.712L0.576 17.712Q0.552 19.296 1.152 20.448Q1.752 21.6 2.772 22.344Q3.792 23.088 5.124 23.436Q6.456 23.784 7.872 23.784Q9.624 23.784 10.956 23.376Q12.288 22.968 13.188 22.236Q14.088 21.504 14.544 20.496Q15 19.488 15 18.312Q15 16.872 14.388 15.948Q13.776 15.024 12.936 14.472Q12.096 13.92 11.244 13.668Q10.392 13.416 9.912 13.32Q8.304 12.912 7.308 12.648Q6.312 12.384 5.748 12.12Q5.184 11.856 4.992 11.544Q4.8 11.232 4.8 10.728Q4.8 10.176 5.04 9.816Q5.28 9.456 5.652 9.216Q6.024 8.976 6.48 8.88Q6.936 8.784 7.392 8.784Q8.088 8.784 8.676 8.904Q9.264 9.024 9.72 9.312Q10.176 9.6 10.452 10.104Q10.728 10.608 10.776 11.376L14.424 11.376Q14.424 9.888 13.86 8.844Q13.296 7.8 12.336 7.128Q11.376 6.456 10.14 6.156Q8.904 5.856 7.56 5.856Q6.408 5.856 5.256 6.168Q4.104 6.48 3.192 7.128Q2.28 7.776 1.716 8.748Q1.152 9.72 1.152 11.04Q1.152 12.216 1.596 13.044Q2.04 13.872 2.76 14.424Q3.48 14.976 4.392 15.324Q5.304 15.672 6.264 15.912Q7.2 16.176 8.112 16.392Q9.024 16.608 9.744 16.896Q10.464 17.184 10.908 17.616Q11.352 18.048 11.352 18.744Q11.352 19.392 11.016 19.812Q10.68 20.232 10.176 20.472Q9.672 20.712 9.096 20.796Q8.52 20.88 8.016 20.88Q7.272 20.88 6.576 20.7Q5.88 20.52 5.364 20.148Q4.848 19.776 4.536 19.176Q4.224 18.576 4.224 17.712ZM20.376 9.072L20.376 6.264L16.968 6.264L16.968 9.072L20.376 9.072ZM16.968 10.992L16.968 23.4L20.376 23.4L20.376 10.992L16.968 10.992ZM28.848 20.472Q28.056 20.472 27.528 20.136Q27 19.8 26.676 19.272Q26.352 18.744 26.22 18.084Q26.088 17.424 26.088 16.752Q26.088 16.056 26.244 15.42Q26.4 14.784 26.748 14.292Q27.096 13.8 27.612 13.512Q28.128 13.224 28.848 13.224Q29.688 13.224 30.24 13.536Q30.792 13.848 31.128 14.376Q31.464 14.904 31.608 15.588Q31.752 16.272 31.752 17.04Q31.752 17.712 31.572 18.324Q31.392 18.936 31.032 19.416Q30.672 19.896 30.12 20.184Q29.568 20.472 28.848 20.472ZM34.992 22.608L34.992 10.992L31.752 10.992L31.752 12.648L31.704 12.648Q31.08 11.568 30.156 11.112Q29.232 10.656 28.008 10.656Q26.712 10.656 25.716 11.16Q24.72 11.664 24.048 12.516Q23.376 13.368 23.028 14.484Q22.68 15.6 22.68 16.8Q22.68 18.072 22.98 19.212Q23.28 20.352 23.928 21.204Q24.576 22.056 25.584 22.548Q26.592 23.04 27.984 23.04Q29.112 23.04 30.132 22.572Q31.152 22.104 31.704 21.12L31.752 21.12L31.752 22.752Q31.776 24.072 31.116 24.936Q30.456 25.8 29.016 25.8Q28.104 25.8 27.408 25.428Q26.712 25.056 26.472 24.096L23.088 24.096Q23.16 25.152 23.676 25.908Q24.192 26.664 24.972 27.144Q25.752 27.624 26.7 27.852Q27.648 28.08 28.56 28.08Q30.696 28.08 31.968 27.504Q33.24 26.928 33.912 26.1Q34.584 25.272 34.788 24.312Q34.992 23.352 34.992 22.608ZM37.728 10.992L37.728 23.4L41.136 23.4L41.136 16.896Q41.136 15 41.76 14.172Q42.384 13.344 43.776 13.344Q45 13.344 45.48 14.1Q45.96 14.856 45.96 16.392L45.96 23.4L49.368 23.4L49.368 15.768Q49.368 14.616 49.164 13.668Q48.96 12.72 48.456 12.06Q47.952 11.4 47.076 11.028Q46.2 10.656 44.832 10.656Q43.752 10.656 42.72 11.148Q41.688 11.64 41.04 12.72L40.968 12.72L40.968 10.992L37.728 10.992ZM70.272 23.4L70.272 10.992L66.864 10.992L66.864 17.496Q66.864 19.392 66.24 20.22Q65.616 21.048 64.224 21.048Q63 21.048 62.52 20.292Q62.04 19.536 62.04 18L62.04 10.992L58.632 10.992L58.632 18.624Q58.632 19.776 58.836 20.724Q59.04 21.672 59.544 22.332Q60.048 22.992 60.924 23.352Q61.8 23.712 63.168 23.712Q64.248 23.712 65.28 23.232Q66.312 22.752 66.96 21.672L67.032 21.672L67.032 23.4L70.272 23.4ZM79.128 21.168Q78.312 21.168 77.736 20.832Q77.16 20.496 76.812 19.956Q76.464 19.416 76.308 18.696Q76.152 17.976 76.152 17.232Q76.152 16.464 76.296 15.744Q76.44 15.024 76.788 14.472Q77.136 13.92 77.7 13.572Q78.264 13.224 79.104 13.224Q79.92 13.224 80.484 13.572Q81.048 13.92 81.408 14.484Q81.768 15.048 81.924 15.768Q82.08 16.488 82.08 17.232Q82.08 17.976 81.936 18.696Q81.792 19.416 81.444 19.956Q81.096 20.496 80.532 20.832Q79.968 21.168 79.128 21.168ZM72.864 10.992L72.864 27.744L76.272 27.744L76.272 21.864L76.32 21.864Q76.944 22.776 77.916 23.244Q78.888 23.712 80.04 23.712Q81.408 23.712 82.428 23.184Q83.448 22.656 84.132 21.768Q84.816 20.88 85.152 19.728Q85.488 18.576 85.488 17.328Q85.488 16.008 85.152 14.796Q84.816 13.584 84.12 12.672Q83.424 11.76 82.368 11.208Q81.312 10.656 79.848 10.656Q78.696 10.656 77.736 11.112Q76.776 11.568 76.152 12.576L76.104 12.576L76.104 10.992L72.864 10.992Z" />
        </g>
      </g>
    </g>
    <path d="M32 86.1599L62.528 86.1599L62.528 76.6879L42.24 76.6879L42.24 68.5599L61.248 68.5599L61.248 59.5999L42.24 59.5999L42.24 52.1119L62.528 52.1119L62.528 42.6399L32 42.6399L32 86.1599ZM66.624 86.1599L82.688 86.1599C95.552 86.1599 104.512 77.9679 104.512 64.3999C104.512 50.8319 95.552 42.6399 82.688 42.6399L66.624 42.6399L66.624 86.1599ZM76.864 76.6879L76.864 52.1119L82.368 52.1119C89.344 52.1119 93.888 56.6559 93.888 63.7599L93.888 65.0399C93.888 72.1439 89.344 76.6879 82.368 76.6879L76.864 76.6879ZM125.888 86.7999C137.984 86.7999 144.384 80.1439 144.384 68.2399L144.384 42.6399L134.144 42.6399L134.144 67.7279C134.144 74.7039 131.264 77.3279 125.888 77.3279C120.512 77.3279 117.632 74.7039 117.632 67.7279L117.632 42.6399L107.392 42.6399L107.392 68.2399C107.392 80.1439 113.792 86.7999 125.888 86.7999L125.888 86.7999ZM160.96 68.6879L166.912 69.7759C170.752 70.4799 172.16 71.9519 172.16 73.9359C172.16 76.4959 169.792 78.0319 165.76 78.0319C159.872 78.0319 157.824 74.7039 157.76 71.1199L147.264 71.1199C147.84 79.3119 152.64 86.7999 165.376 86.7999C175.552 86.7999 182.656 81.9999 182.656 73.0399C182.656 65.7439 178.048 61.5199 169.472 59.9839L163.456 58.8959C159.616 58.1919 158.208 56.9119 158.208 54.9279C158.208 52.3679 160.576 50.7679 164.608 50.7679C170.496 50.7679 172.48 54.0959 172.608 57.6799L183.104 57.6799C182.528 49.4879 177.728 41.9999 164.992 41.9999C154.816 41.9999 147.712 46.7999 147.712 55.7599C147.712 63.0559 152.448 67.1519 160.96 68.6879L160.96 68.6879ZM186.688 86.1599L196.928 86.1599L196.928 72.8479L203.328 72.8479C213.376 72.8479 220.096 66.9599 220.096 57.7439C220.096 48.5279 213.376 42.6399 203.328 42.6399L186.688 42.6399L186.688 86.1599ZM196.928 63.7599L196.928 51.7279L203.072 51.7279C207.296 51.7279 209.472 54.0319 209.472 57.4239L209.472 58.0639C209.472 61.4559 207.296 63.7599 203.072 63.7599L196.928 63.7599ZM246.4 42.6399L229.888 42.6399L217.024 86.1599L227.712 86.1599L230.592 75.6639L245.632 75.6639L248.576 86.1599L259.264 86.1599L246.4 42.6399ZM233.216 66.1919L236.032 56.1439L238.016 48.4639L238.144 48.4639L240.128 56.1439L242.944 66.1919L233.216 66.1919ZM262.208 86.1599L272.448 86.1599L272.448 71.2479L275.648 71.2479L284.672 86.1599L297.024 86.1599L285.76 70.1599C291.648 68.2399 295.232 63.7599 295.232 57.1039C295.232 48.3359 288.896 42.6399 278.784 42.6399L262.208 42.6399L262.208 86.1599ZM272.448 62.7359L272.448 51.7279L278.208 51.7279C282.432 51.7279 284.608 53.8399 284.608 56.9119L284.608 57.5519C284.608 60.6239 282.432 62.7359 278.208 62.7359L272.448 62.7359ZM299.008 86.1599L309.248 86.1599L309.248 66.3199L322.304 86.1599L334.912 86.1599L319.488 64.0799L334.848 42.6399L322.368 42.6399L309.248 61.9039L309.248 42.6399L299.008 42.6399L299.008 86.1599Z" id="EDUSPARK" fill="#0284C7" stroke="none" />
  </g>
</svg>